<svg xmlns="http://www.w3.org/2000/svg" width="14" height="14" viewBox="0 0 14 14" fill="none">
<path opacity="0.7" d="M10.0374 2.31541C9.88314 2.31541 9.73234 2.36115 9.60407 2.44686C9.47581 2.53257 9.37579 2.65439 9.31677 2.79691C9.25775 2.93944 9.24233 3.09627 9.2724 3.24758C9.30247 3.39888 9.37675 3.53787 9.48586 3.64695C9.59497 3.75603 9.7339 3.83032 9.88522 3.86042C10.0365 3.89051 10.1934 3.87507 10.3359 3.81603C10.4785 3.75699 10.6002 3.65702 10.6859 3.52875C10.7716 3.40048 10.8174 3.24967 10.8174 3.09541C10.8174 2.88853 10.7352 2.69014 10.589 2.54386C10.4427 2.39758 10.2443 2.31541 10.0374 2.31541ZM13.0274 3.88841C13.0148 3.3491 12.9138 2.81552 12.7284 2.30891C12.5631 1.87544 12.3059 1.48294 11.9744 1.15841C11.6525 0.825234 11.2591 0.569619 10.8239 0.410906C10.3186 0.219911 9.78443 0.116592 9.24441 0.105406C8.55541 0.0664063 8.33441 0.0664062 6.56641 0.0664062C4.79841 0.0664062 4.57741 0.0664063 3.88841 0.105406C3.34835 0.116592 2.81418 0.219911 2.30891 0.410906C1.8745 0.571231 1.48141 0.82662 1.15841 1.15841C0.825234 1.48027 0.569619 1.87369 0.410906 2.30891C0.219911 2.81418 0.116592 3.34835 0.105406 3.88841C0.0664063 4.57741 0.0664062 4.79841 0.0664062 6.56641C0.0664062 8.33441 0.0664063 8.55541 0.105406 9.24441C0.116592 9.78443 0.219911 10.3186 0.410906 10.8239C0.569619 11.2591 0.825234 11.6525 1.15841 11.9744C1.48141 12.3062 1.8745 12.5616 2.30891 12.7219C2.81418 12.9129 3.34835 13.0162 3.88841 13.0274C4.57741 13.0664 4.79841 13.0664 6.56641 13.0664C8.33441 13.0664 8.55541 13.0664 9.24441 13.0274C9.78443 13.0162 10.3186 12.9129 10.8239 12.7219C11.2591 12.5632 11.6525 12.3076 11.9744 11.9744C12.3074 11.6511 12.5649 11.2582 12.7284 10.8239C12.9138 10.3173 13.0148 9.78373 13.0274 9.24441C13.0274 8.55541 13.0664 8.33441 13.0664 6.56641C13.0664 4.79841 13.0664 4.57741 13.0274 3.88841ZM11.8574 9.16641C11.8526 9.57903 11.7779 9.98783 11.6364 10.3754C11.5326 10.6583 11.3659 10.9139 11.1489 11.1229C10.938 11.3378 10.683 11.5041 10.4014 11.6104C10.0138 11.7519 9.60503 11.8266 9.19241 11.8314C8.54241 11.8639 8.30191 11.8704 6.59241 11.8704C4.88291 11.8704 4.64241 11.8704 3.99241 11.8314C3.56399 11.8395 3.1374 11.7734 2.73141 11.6364C2.46217 11.5247 2.21879 11.3587 2.01641 11.1489C1.80067 10.9401 1.63605 10.6843 1.53541 10.4014C1.37671 10.0083 1.28869 9.59021 1.27541 9.16641C1.27541 8.51641 1.23641 8.27591 1.23641 6.56641C1.23641 4.85691 1.23641 4.61641 1.27541 3.96641C1.27832 3.54459 1.35532 3.12657 1.50291 2.73141C1.61734 2.45705 1.79298 2.21248 2.01641 2.01641C2.21388 1.79292 2.45795 1.61542 2.73141 1.49641C3.12761 1.35343 3.54521 1.27871 3.96641 1.27541C4.61641 1.27541 4.85691 1.23641 6.56641 1.23641C8.27591 1.23641 8.51641 1.23641 9.16641 1.27541C9.57903 1.28014 9.98783 1.35486 10.3754 1.49641C10.6708 1.60603 10.9359 1.78426 11.1489 2.01641C11.3619 2.21607 11.5283 2.46018 11.6364 2.73141C11.7809 3.12721 11.8557 3.54506 11.8574 3.96641C11.8899 4.61641 11.8964 4.85691 11.8964 6.56641C11.8964 8.27591 11.8899 8.51641 11.8574 9.16641ZM6.56641 3.23191C5.90719 3.23319 5.26313 3.42984 4.71563 3.79703C4.16813 4.16421 3.74175 4.68544 3.49037 5.29484C3.23899 5.90426 3.17387 6.57451 3.30328 7.22091C3.43267 7.86731 3.75076 8.46085 4.21736 8.92651C4.68395 9.39226 5.27812 9.7092 5.92476 9.83729C6.57142 9.96547 7.24154 9.899 7.85046 9.64645C8.45938 9.39391 8.97981 8.96647 9.34589 8.4183C9.71197 7.87006 9.90741 7.22563 9.90741 6.56641C9.90827 6.12773 9.82239 5.69321 9.65469 5.28783C9.48707 4.88246 9.24085 4.51424 8.93041 4.20434C8.61989 3.89445 8.25117 3.649 7.84548 3.48211C7.43977 3.31523 7.00509 3.23019 6.56641 3.23191ZM6.56641 8.73091C6.13831 8.73091 5.71983 8.60394 5.36387 8.36613C5.00792 8.12829 4.73049 7.79024 4.56667 7.39472C4.40284 6.99921 4.35998 6.56401 4.4435 6.14413C4.52702 5.72426 4.73316 5.33858 5.03587 5.03587C5.33858 4.73316 5.72426 4.52702 6.14413 4.4435C6.56401 4.35998 6.99921 4.40284 7.39472 4.56667C7.79024 4.73049 8.12829 5.00792 8.36613 5.36387C8.60394 5.71983 8.73091 6.13831 8.73091 6.56641C8.73091 6.85066 8.67492 7.13211 8.56615 7.39472C8.45739 7.65733 8.29793 7.89595 8.09694 8.09694C7.89595 8.29793 7.65733 8.45739 7.39472 8.56615C7.13211 8.67492 6.85066 8.73091 6.56641 8.73091Z" fill="white"/>
</svg>