<svg xmlns="http://www.w3.org/2000/svg" width="177" height="28" viewBox="0 0 177 28" fill="none">
<path d="M154.783 27.44V0.559992H159.989L171.795 18.48V0.559992H177V27.44H171.795L159.989 9.51999V27.44H154.783Z" fill="white"/>
<path d="M132.535 27.44V0.559992H150.263V5.30132H137.665V11.0507H148V15.792H137.665V22.6987H150.263V27.44H132.535Z" fill="white"/>
<path d="M112.504 27.44V0.559992H117.634V22.6987H129.327V27.44H112.504Z" fill="#FF843F"/>
<path d="M95.6407 28C92.9249 28 90.58 27.4151 88.606 26.2453C86.6446 25.0756 85.1295 23.4391 84.0608 21.336C83.0046 19.2329 82.4766 16.7876 82.4766 14C82.4766 11.2124 83.0046 8.76711 84.0608 6.664C85.1295 4.56089 86.6446 2.92444 88.606 1.75467C90.58 0.584889 92.9249 0 95.6407 0C98.7589 0 101.374 0.765333 103.486 2.296C105.611 3.82667 107.107 5.89867 107.975 8.512L102.807 9.93067C102.305 8.30044 101.456 7.03733 100.261 6.14133C99.0669 5.23289 97.5267 4.77867 95.6407 4.77867C93.9182 4.77867 92.4786 5.15822 91.3218 5.91733C90.1777 6.67645 89.3164 7.74667 88.738 9.128C88.1597 10.5093 87.8705 12.1333 87.8705 14C87.8705 15.8667 88.1597 17.4907 88.738 18.872C89.3164 20.2533 90.1777 21.3236 91.3218 22.0827C92.4786 22.8418 93.9182 23.2213 95.6407 23.2213C97.5267 23.2213 99.0669 22.7671 100.261 21.8587C101.456 20.9502 102.305 19.6871 102.807 18.0693L107.975 19.488C107.107 22.1013 105.611 24.1733 103.486 25.704C101.374 27.2347 98.7589 28 95.6407 28Z" fill="white"/>
<path d="M68.9382 28C66.9265 28 65.1097 27.6515 63.4877 26.9546C61.8783 26.2453 60.5519 25.2373 59.5083 23.9306C58.4773 22.6115 57.8235 21.0435 57.5469 19.2267L62.9031 18.4426C63.2803 19.9858 64.0598 21.1742 65.2417 22.008C66.4236 22.8418 67.7689 23.2586 69.2777 23.2586C70.1201 23.2586 70.9373 23.128 71.7295 22.8666C72.5216 22.6053 73.1691 22.2195 73.672 21.7093C74.1875 21.1991 74.4453 20.5706 74.4453 19.824C74.4453 19.5502 74.4013 19.2889 74.3133 19.04C74.2378 18.7786 74.1058 18.536 73.9172 18.312C73.7286 18.088 73.4583 17.8764 73.1062 17.6773C72.7667 17.4782 72.333 17.2978 71.8049 17.136L64.7513 15.0826C64.2233 14.9333 63.6072 14.7218 62.9031 14.448C62.2115 14.1742 61.5389 13.7822 60.8851 13.272C60.2313 12.7618 59.6843 12.0898 59.2443 11.256C58.8168 10.4098 58.603 9.34576 58.603 8.06398C58.603 6.25954 59.0619 4.75998 59.9798 3.56532C60.8976 2.37065 62.1235 1.48087 63.6575 0.895983C65.1914 0.311094 66.8888 0.0248721 68.7496 0.0373171C70.623 0.0622057 72.2953 0.379539 73.7663 0.989317C75.2374 1.5991 76.4696 2.48887 77.4628 3.65865C78.4561 4.81598 79.1728 6.23465 79.6129 7.91465L74.0681 8.84798C73.8669 7.97687 73.496 7.24265 72.9553 6.64532C72.4147 6.04798 71.7672 5.59376 71.0128 5.28265C70.271 4.97154 69.4914 4.80354 68.6742 4.77865C67.8695 4.75376 67.1088 4.86576 66.3921 5.11465C65.688 5.35109 65.1097 5.69954 64.657 6.15998C64.217 6.62043 63.9969 7.16798 63.9969 7.80265C63.9969 8.38754 64.1792 8.86665 64.5439 9.23998C64.9085 9.60087 65.3674 9.89332 65.9206 10.1173C66.4739 10.3413 67.0396 10.528 67.618 10.6773L72.333 11.9467C73.0371 12.1333 73.8166 12.3822 74.6716 12.6933C75.5266 12.992 76.3438 13.4151 77.1234 13.9627C77.9155 14.4978 78.563 15.2071 79.0659 16.0906C79.5814 16.9742 79.8392 18.0942 79.8392 19.4507C79.8392 20.8942 79.5311 22.1573 78.915 23.24C78.3115 24.3102 77.4943 25.2 76.4633 25.9093C75.4323 26.6062 74.263 27.1289 72.9553 27.4773C71.6603 27.8258 70.3213 28 68.9382 28Z" fill="white"/>
<path d="M43.505 28C41.3172 28 39.3935 27.5644 37.7339 26.6933C36.0742 25.8098 34.7792 24.5715 33.8488 22.9787C32.9183 21.3858 32.4531 19.5129 32.4531 17.36V0.597325L37.6584 0.559992V17.3227C37.6584 18.2062 37.8093 19.0089 38.1111 19.7307C38.4128 20.4524 38.8277 21.0747 39.3558 21.5973C39.8965 22.12 40.5188 22.5244 41.2229 22.8107C41.9396 23.0844 42.7003 23.2213 43.505 23.2213C44.3348 23.2213 45.1018 23.0782 45.8059 22.792C46.5226 22.5058 47.1449 22.1013 47.673 21.5787C48.2011 21.056 48.6097 20.4338 48.8989 19.712C49.2006 18.9902 49.3515 18.1938 49.3515 17.3227V0.559992H54.5568V17.36C54.5568 19.5129 54.0916 21.3858 53.1612 22.9787C52.2308 24.5715 50.9358 25.8098 49.2761 26.6933C47.6164 27.5644 45.6927 28 43.505 28Z" fill="white"/>
<path d="M0 27.44V0.559992H4.6018L13.5791 18.4053L22.5563 0.559992H27.1581V27.44H22.3677V11.3867L14.4843 27.44H12.6738L4.79039 11.3867V27.44H0Z" fill="white"/>
</svg>