<svg xmlns="http://www.w3.org/2000/svg" width="53" height="53" viewBox="0 0 53 53" fill="none">
<mask id="path-1-outside-1_2016_2711" maskUnits="userSpaceOnUse" x="-1" y="-1" width="55" height="55" fill="black">
<rect fill="white" x="-1" y="-1" width="55" height="55"/>
<path d="M19.34 52.3778V0.957387H33.6511V52.3778H19.34ZM0.767578 33.8409V19.5298H52.188V33.8409H0.767578Z"/>
</mask>
<path d="M19.34 52.3778H18.34V53.3778H19.34V52.3778ZM19.34 0.957387V-0.0426126H18.34V0.957387H19.34ZM33.6511 0.957387H34.6511V-0.0426126H33.6511V0.957387ZM33.6511 52.3778V53.3778H34.6511V52.3778H33.6511ZM0.767578 33.8409H-0.232422V34.8409H0.767578V33.8409ZM0.767578 19.5298V18.5298H-0.232422V19.5298H0.767578ZM52.188 19.5298H53.188V18.5298H52.188V19.5298ZM52.188 33.8409V34.8409H53.188V33.8409H52.188ZM20.34 52.3778V0.957387H18.34V52.3778H20.34ZM19.34 1.95739H33.6511V-0.0426126H19.34V1.95739ZM32.6511 0.957387V52.3778H34.6511V0.957387H32.6511ZM33.6511 51.3778H19.34V53.3778H33.6511V51.3778ZM1.76758 33.8409V19.5298H-0.232422V33.8409H1.76758ZM0.767578 20.5298H52.188V18.5298H0.767578V20.5298ZM51.188 19.5298V33.8409H53.188V19.5298H51.188ZM52.188 32.8409H0.767578V34.8409H52.188V32.8409Z" fill="white" fill-opacity="0.15" mask="url(#path-1-outside-1_2016_2711)"/>
</svg>